<svg width="84" height="84" viewBox="0 0 84 84" fill="none" xmlns="http://www.w3.org/2000/svg">
<rect width="84" height="84" rx="42" fill="#F1E9FD"/>
<mask id="mask0_3391_13098" style="mask-type:alpha" maskUnits="userSpaceOnUse" x="16" y="16" width="52" height="52">
<rect x="16" y="16" width="52" height="52" fill="#D9D9D9"/>
</mask>
<g mask="url(#mask0_3391_13098)">
<path d="M26.0191 63.6673C25.4053 63.6673 24.8726 63.4416 24.4212 62.9902C23.9698 62.5388 23.7441 62.0062 23.7441 61.3923V55.7048C23.7441 52.4548 24.7553 49.584 26.7775 47.0923C28.7997 44.6007 31.3997 43.0118 34.5775 42.3257C33.133 43.3368 32.0136 44.6097 31.2191 46.1444C30.4247 47.6791 30.0275 49.3312 30.0275 51.1006V61.3923C30.0275 61.7895 30.0816 62.1868 30.19 62.584C30.2983 62.9812 30.4789 63.3423 30.7316 63.6673H26.0191ZM33.9816 63.6673C33.3678 63.6673 32.8351 63.4416 32.3837 62.9902C31.9323 62.5388 31.7066 62.0062 31.7066 61.3923V51.1006C31.7066 48.5729 32.6004 46.4243 34.3879 44.6548C36.1754 42.8854 38.333 42.0006 40.8608 42.0006H51.0983C53.6261 42.0006 55.7747 42.8854 57.5441 44.6548C59.3136 46.4243 60.1983 48.5729 60.1983 51.1006V54.5673C60.1983 57.0951 59.3136 59.2437 57.5441 61.0131C55.7747 62.7826 53.6261 63.6673 51.0983 63.6673H33.9816ZM41.9983 37.4506C39.615 37.4506 37.5928 36.6201 35.9316 34.959C34.2705 33.2979 33.44 31.2757 33.44 28.8923C33.44 26.509 34.2705 24.4868 35.9316 22.8257C37.5928 21.1645 39.615 20.334 41.9983 20.334C44.3816 20.334 46.4039 21.1645 48.065 22.8257C49.7261 24.4868 50.5566 26.509 50.5566 28.8923C50.5566 31.2757 49.7261 33.2979 48.065 34.959C46.4039 36.6201 44.3816 37.4506 41.9983 37.4506Z" fill="#673AB7"/>
</g>
</svg>
