<svg width="139" height="43" viewBox="0 0 139 43" fill="none" xmlns="http://www.w3.org/2000/svg">
<path fill-rule="evenodd" clip-rule="evenodd" d="M3.86775 25.0468C1.10069 30.2644 0.690222 34.9351 2.81624 38.0465L2.81049 38.0506C4.24012 40.0583 6.53101 41.4537 9.71065 41.5199C11.2624 41.552 12.6817 40.9486 13.7413 40.3027C14.2099 40.0173 14.5975 39.7296 14.8821 39.4996C13.3674 38.691 12.063 37.6964 10.6947 36.2185C10.7223 36.2026 10.7495 36.1865 10.7766 36.1705C10.8232 36.143 10.8696 36.1157 10.9181 36.089C12.0378 35.4661 13.2991 34.9124 14.6717 34.439C15.1424 35.7483 15.6843 36.9736 16.2939 38.092C16.4678 38.4111 16.6063 38.6799 16.7292 38.9188C17.1101 39.6586 17.3423 40.1093 18.0213 40.8658C17.4217 40.6451 16.8607 40.4243 16.3295 40.194C16.3197 40.2032 16.3093 40.2128 16.2984 40.2228C16.2078 40.3068 16.0771 40.4232 15.9101 40.5619C15.5769 40.8384 15.0957 41.2049 14.4983 41.5691C13.3129 42.2915 11.6156 43.0384 9.68048 42.9985C5.95823 42.9208 3.19876 41.2259 1.50928 38.7535L1.51765 38.7476C-0.970239 34.9543 -0.246635 29.672 2.57652 24.3486C5.45448 18.9219 10.6093 13.2409 17.3388 8.55276C21.0187 5.98914 24.8064 3.97542 28.4721 2.54753C28.3072 2.51721 28.1427 2.48901 27.9787 2.46302C23.2267 1.70981 18.3645 2.69516 14.2683 5.24149L13.5003 3.98204C17.8938 1.25093 23.1089 0.194083 28.2058 1.00195C29.1455 1.15087 30.0994 1.367 31.0371 1.63718C33.1708 0.954738 35.2424 0.481552 37.2042 0.225145C43.13 -0.549341 48.2734 0.639949 50.9044 4.32727L50.9091 4.32401C51.9839 5.84294 52.1563 7.68865 51.8883 9.50174C51.6199 11.3146 50.9011 13.177 50.0852 14.8319C49.2668 16.493 48.3327 17.9809 47.6058 19.0509C47.2419 19.5869 46.9284 20.0204 46.705 20.3209C46.5963 20.4669 46.5091 20.5816 46.4472 20.6617C46.4498 20.7022 46.452 20.7427 46.4542 20.7833H46.3528L46.3509 20.7855L46.3455 20.7922L46.344 20.7942L46.3436 20.7948C46.3436 20.7949 46.3436 20.7949 46.329 20.7833H38.9501C38.8618 17.5237 38.4023 14.4395 37.6355 11.6631C39.1387 11.1465 40.5346 10.5329 41.7953 9.8321C42.0033 9.71608 42.2032 9.59539 42.4032 9.47471C44.3714 12.141 45.6706 15.2357 46.2059 18.4945C46.2682 18.4048 46.3323 18.3114 46.3978 18.2145C47.1005 17.1801 47.9951 15.7533 48.774 14.173C49.5557 12.5866 50.2031 10.8811 50.4397 9.28319C50.6667 7.74721 50.5049 6.38668 49.8044 5.31207L49.8015 5.31407C47.6754 2.20267 43.2055 0.932091 37.3924 1.69187C36.1301 1.85683 34.8153 2.11684 33.4624 2.47038C34.1894 2.76229 34.8872 3.08285 35.539 3.42477C36.6128 3.98807 37.578 4.61818 38.3477 5.28767C38.4576 5.38324 38.5645 5.48045 38.6678 5.57921C39.4627 6.21697 40.2127 6.91486 40.9103 7.66831C40.8824 7.68421 40.8553 7.70026 40.8282 7.71627C40.7817 7.74366 40.7352 7.77117 40.6869 7.79779C39.5671 8.42066 38.3053 8.9753 36.9321 9.44872C36.4623 8.13847 35.9205 6.91315 35.311 5.79462C35.088 5.38583 34.8553 4.98988 34.6131 4.60809C33.5282 4.05917 32.3128 3.57204 31.0566 3.18496C30.5963 3.33773 30.1329 3.5006 29.6668 3.67357C30.6318 3.88587 31.8569 4.73291 33.2972 6.91456C33.8245 7.8818 34.302 8.95489 34.7226 10.112C32.3499 10.7265 29.7247 11.1089 26.9516 11.1925L27.2145 4.66628C26.2507 5.08878 25.2795 5.55251 24.3054 6.05698L24.6533 11.1925C22.1103 11.1163 19.6918 10.788 17.4782 10.2601C16.089 11.2588 14.7748 12.2985 13.5418 13.3665C13.0272 15.6812 12.7178 18.1758 12.6469 20.7833H6.58289C5.52207 22.2122 4.61285 23.6418 3.86775 25.0468ZM14.9466 20.7833C15.0357 17.7446 15.4734 14.8795 16.1757 12.3282C18.7797 13.0128 21.6397 13.424 24.6533 13.5076V20.7833H14.9466ZM26.9516 13.5071C29.9646 13.4235 32.8256 13.0128 35.4291 12.3282C36.1315 14.8795 36.5692 17.7446 36.6582 20.7833H26.9516V13.5071ZM9.2017 34.4125C6.77767 31.1283 5.3685 27.1941 5.15117 23.1039H12.6464C12.7351 26.3645 13.1966 29.4482 13.9661 32.2241C12.4644 32.7417 11.0688 33.3552 9.80937 34.0552C9.6016 34.1712 9.40167 34.2919 9.2017 34.4125ZM16.1748 31.5554C15.4729 29.0049 15.0357 26.1412 14.9466 23.1039H24.6533V30.3723C21.6388 30.4563 18.7788 30.8689 16.1748 31.5554ZM26.9516 30.3723V23.1039H36.6582C36.5692 26.1412 36.1319 29.0049 35.43 31.5554C32.8261 30.8689 29.966 30.4558 26.9516 30.3723ZM37.6362 32.2232C38.403 29.4472 38.8629 26.3635 38.9512 23.1039H46.4542C46.2367 27.1943 44.8273 31.1286 42.4032 34.413L42.3687 34.3922L42.3684 34.3921C42.1798 34.2783 41.9908 34.164 41.7953 34.0556C40.5349 33.3548 39.139 32.7407 37.6362 32.2232ZM16.8822 33.7753C19.255 33.1608 21.8801 32.7783 24.6533 32.6948V42.7049C22.3094 42.2098 20.0773 40.2169 18.3076 36.9728C17.7804 36.0054 17.3028 34.9324 16.8822 33.7753ZM26.9516 42.7042V32.6948C29.7247 32.7779 32.3499 33.1608 34.7226 33.7753C34.302 34.9324 33.8245 36.0054 33.2972 36.9721C31.528 40.2165 29.2959 42.2098 26.9516 42.7042ZM35.311 38.092C35.921 36.9736 36.4619 35.7478 36.9321 34.4381C38.3053 34.9115 39.5671 35.4666 40.6869 36.0885C40.7327 36.1141 40.777 36.1403 40.8213 36.1664C40.8506 36.1838 40.8802 36.2012 40.9103 36.2185C38.6901 38.6163 35.9412 40.4521 32.8868 41.5761C33.7849 40.5752 34.5981 39.3991 35.311 38.092Z" fill="#673AB7"/>
<path d="M60 21.5938C60 21.4271 60.0312 21.276 60.0938 21.1406C60.1667 20.9948 60.3021 20.9219 60.5 20.9219C60.6667 20.9219 60.8281 21.0938 60.9844 21.4375C61.151 21.7812 61.3177 22.224 61.4844 22.7656C61.6615 23.2969 61.8438 23.8854 62.0312 24.5312C62.2188 25.1667 62.4167 25.7865 62.625 26.3906C62.8333 26.9844 63.0521 27.5208 63.2812 28C63.5104 28.4688 63.7552 28.7969 64.0156 28.9844C64.2656 28.8802 64.4635 28.6979 64.6094 28.4375C64.7656 28.1667 64.8906 27.849 64.9844 27.4844C65.0781 27.1094 65.1458 26.7083 65.1875 26.2812C65.2396 25.8438 65.2865 25.4115 65.3281 24.9844C65.3802 24.5469 65.4323 24.125 65.4844 23.7188C65.5365 23.3021 65.6094 22.9375 65.7031 22.625C65.8073 22.3125 65.9375 22.0625 66.0938 21.875C66.25 21.6875 66.4479 21.5938 66.6875 21.5938C66.8333 21.5938 66.9635 21.6094 67.0781 21.6406C67.1927 21.6615 67.2917 21.7656 67.375 21.9531C67.4167 22.0885 67.4844 22.2865 67.5781 22.5469C67.6719 22.8073 67.776 23.1094 67.8906 23.4531C68.0156 23.7969 68.151 24.1667 68.2969 24.5625C68.4531 24.9479 68.6094 25.3281 68.7656 25.7031C68.9323 26.0781 69.0938 26.4375 69.25 26.7812C69.4062 27.1146 69.5573 27.401 69.7031 27.6406C69.724 27.6823 69.776 27.75 69.8594 27.8438C69.9531 27.9271 70.0156 27.974 70.0469 27.9844L70.7188 27.3125C70.8958 27.1354 71.0312 26.875 71.125 26.5312C71.2188 26.1771 71.2865 25.7708 71.3281 25.3125C71.3802 24.8542 71.4115 24.3646 71.4219 23.8438C71.4427 23.3125 71.4583 22.7865 71.4688 22.2656C71.4792 21.7448 71.5 21.2396 71.5312 20.75C71.5625 20.2604 71.6146 19.8333 71.6875 19.4688C71.7604 19.0938 71.8646 18.7969 72 18.5781C72.1354 18.3594 72.3229 18.25 72.5625 18.25C72.5729 18.25 72.5833 18.2552 72.5938 18.2656C72.6146 18.2656 72.6354 18.2656 72.6562 18.2656C72.6875 18.276 72.7083 18.2812 72.7188 18.2812C72.7292 18.2812 72.7552 18.3021 72.7969 18.3438C72.8385 18.375 72.875 18.4062 72.9062 18.4375C72.9479 18.4688 72.9792 18.5 73 18.5312C73.0312 18.5625 73.0521 18.5885 73.0625 18.6094C73.0625 18.6823 73.0625 18.8125 73.0625 19C73.0729 19.1875 73.0781 19.3906 73.0781 19.6094C73.0781 19.8281 73.0781 20.0365 73.0781 20.2344C73.0885 20.4219 73.0938 20.5521 73.0938 20.625C73.0938 20.8333 73.0885 21.1198 73.0781 21.4844C73.0781 21.849 73.0625 22.2656 73.0312 22.7344C73.0104 23.1927 72.974 23.6875 72.9219 24.2188C72.8802 24.7396 72.8125 25.2604 72.7188 25.7812C72.625 26.2917 72.5052 26.7865 72.3594 27.2656C72.224 27.7344 72.0521 28.151 71.8438 28.5156C71.6458 28.8698 71.4115 29.1562 71.1406 29.375C70.8802 29.5833 70.5677 29.6875 70.2031 29.6875C69.849 29.6875 69.5469 29.5729 69.2969 29.3438C69.0573 29.1042 68.849 28.8125 68.6719 28.4688C68.4948 28.1146 68.3438 27.7344 68.2188 27.3281C68.0938 26.9115 67.9635 26.526 67.8281 26.1719C67.7031 25.8177 67.5625 25.526 67.4062 25.2969C67.2604 25.0573 67.0781 24.9375 66.8594 24.9375C66.8385 24.9375 66.8073 24.9427 66.7656 24.9531C66.7344 24.9635 66.7083 24.9688 66.6875 24.9688C66.6771 25.0104 66.6458 25.1927 66.5938 25.5156C66.5417 25.8385 66.4688 26.224 66.375 26.6719C66.2812 27.1094 66.1667 27.5833 66.0312 28.0938C65.8958 28.6042 65.7396 29.0729 65.5625 29.5C65.3958 29.9271 65.2083 30.2865 65 30.5781C64.8021 30.8594 64.5833 31 64.3438 31C63.8542 31 63.4062 30.8177 63 30.4531C62.5938 30.0781 62.2292 29.599 61.9062 29.0156C61.5938 28.4219 61.3177 27.7656 61.0781 27.0469C60.8385 26.3281 60.6354 25.625 60.4688 24.9375C60.3125 24.2396 60.1927 23.5938 60.1094 23C60.0365 22.3958 60 21.9271 60 21.5938ZM74.0312 27.8281C74.0312 27.1823 74.1823 26.5833 74.4844 26.0312C74.7865 25.4688 75.1823 24.9896 75.6719 24.5938C76.1719 24.1875 76.7292 23.8698 77.3438 23.6406C77.9688 23.4115 78.599 23.2969 79.2344 23.2969C79.5885 23.2969 79.901 23.4115 80.1719 23.6406C80.4531 23.8698 80.6875 24.151 80.875 24.4844C81.0625 24.8073 81.2031 25.151 81.2969 25.5156C81.401 25.8802 81.4531 26.1979 81.4531 26.4688C81.4531 27.0521 81.3125 27.6198 81.0312 28.1719C80.75 28.7135 80.3854 29.1979 79.9375 29.625C79.4896 30.0417 78.9844 30.3802 78.4219 30.6406C77.8594 30.901 77.2969 31.0312 76.7344 31.0312C76.2344 31.0312 75.8125 30.9479 75.4688 30.7812C75.125 30.6042 74.849 30.375 74.6406 30.0938C74.4323 29.8021 74.276 29.4635 74.1719 29.0781C74.0781 28.6823 74.0312 28.2656 74.0312 27.8281ZM75.3594 27.9844C75.3594 28.2552 75.3802 28.4948 75.4219 28.7031C75.474 28.901 75.5573 29.0729 75.6719 29.2188C75.7969 29.3646 75.9583 29.4792 76.1562 29.5625C76.3542 29.6354 76.599 29.6719 76.8906 29.6719C77.276 29.6719 77.6615 29.5677 78.0469 29.3594C78.4323 29.1406 78.776 28.8698 79.0781 28.5469C79.3906 28.2135 79.6406 27.849 79.8281 27.4531C80.0156 27.0573 80.1094 26.6719 80.1094 26.2969C80.1094 26.1302 80.0938 25.9479 80.0625 25.75C80.0312 25.5521 79.9792 25.3698 79.9062 25.2031C79.8333 25.0365 79.7292 24.8958 79.5938 24.7812C79.4583 24.6667 79.2865 24.6094 79.0781 24.6094C78.8906 24.6094 78.6667 24.6719 78.4062 24.7969C78.1562 24.9219 77.8906 25.0833 77.6094 25.2812C77.3385 25.4792 77.0677 25.7031 76.7969 25.9531C76.5365 26.2031 76.2969 26.4531 76.0781 26.7031C75.8594 26.9531 75.6823 27.1927 75.5469 27.4219C75.4219 27.651 75.3594 27.8385 75.3594 27.9844ZM82.0625 24.4375C82.0625 24.3438 82.0677 24.25 82.0781 24.1562C82.0885 24.0521 82.1094 23.9635 82.1406 23.8906C82.1719 23.8073 82.2188 23.7396 82.2812 23.6875C82.3542 23.6354 82.4531 23.6094 82.5781 23.6094C82.6823 23.6094 82.7969 23.6927 82.9219 23.8594C83.0573 24.0156 83.1927 24.2188 83.3281 24.4688C83.4635 24.7083 83.5938 24.974 83.7188 25.2656C83.8542 25.5573 83.9688 25.8281 84.0625 26.0781C84.1667 26.3177 84.25 26.526 84.3125 26.7031C84.375 26.8802 84.4115 26.974 84.4219 26.9844C84.5573 26.6198 84.7083 26.224 84.875 25.7969C85.0417 25.3698 85.2448 24.974 85.4844 24.6094C85.7344 24.2344 86.026 23.9219 86.3594 23.6719C86.7031 23.4219 87.1198 23.2969 87.6094 23.2969C87.8594 23.2969 88.0938 23.3385 88.3125 23.4219C88.5417 23.4948 88.7396 23.6094 88.9062 23.7656C89.0833 23.9115 89.224 24.0885 89.3281 24.2969C89.4323 24.5052 89.4844 24.7448 89.4844 25.0156C89.4844 25.2448 89.3906 25.4062 89.2031 25.5C89.026 25.5938 88.8229 25.6406 88.5938 25.6406H88.4375L87.7656 24.9688C87.7448 24.9688 87.7292 24.9635 87.7188 24.9531C87.6979 24.9531 87.6771 24.9531 87.6562 24.9531C87.6458 24.9427 87.6302 24.9375 87.6094 24.9375C87.2448 24.9375 86.9583 25.0417 86.75 25.25C86.5521 25.4479 86.401 25.6979 86.2969 26C86.1927 26.2917 86.125 26.6042 86.0938 26.9375C86.0729 27.2604 86.0625 27.5573 86.0625 27.8281C86.0625 28.0365 86.0833 28.25 86.125 28.4688C86.1667 28.6771 86.2135 28.8854 86.2656 29.0938C86.3177 29.2917 86.3646 29.5 86.4062 29.7188C86.4479 29.9271 86.4688 30.1458 86.4688 30.375C86.4688 30.8125 86.2344 31.0312 85.7656 31.0312C85.5052 31.0312 85.2344 30.8958 84.9531 30.625C84.6719 30.3438 84.3906 29.9896 84.1094 29.5625C83.8385 29.1354 83.5781 28.6667 83.3281 28.1562C83.0781 27.6354 82.8594 27.1302 82.6719 26.6406C82.4844 26.151 82.3333 25.7083 82.2188 25.3125C82.1146 24.9167 82.0625 24.625 82.0625 24.4375ZM93.0781 30.6875C92.9115 30.8333 92.7344 30.7656 92.5469 30.4844C92.3698 30.2031 92.1875 29.7812 92 29.2188C91.8125 28.6458 91.625 27.9635 91.4375 27.1719C91.2604 26.3802 91.0885 25.5417 90.9219 24.6562C90.7552 23.7708 90.5938 22.875 90.4375 21.9688C90.2917 21.0521 90.1615 20.1927 90.0469 19.3906C90.0469 19.2448 90.0417 19.099 90.0312 18.9531C90.0312 18.7969 90.0469 18.6562 90.0781 18.5312C90.1198 18.3958 90.1875 18.276 90.2812 18.1719C90.3854 18.0677 90.5417 17.9896 90.75 17.9375C90.7708 17.9271 90.8125 17.9375 90.875 17.9688C90.9479 17.9896 91.0208 18.0208 91.0938 18.0625C91.1667 18.0938 91.2292 18.1302 91.2812 18.1719C91.3438 18.2135 91.3854 18.25 91.4062 18.2812C91.2708 20.2292 91.4948 22.125 92.0781 23.9688C92.1094 23.9375 92.1927 23.8333 92.3281 23.6562C92.4635 23.4688 92.6354 23.2552 92.8438 23.0156C93.0521 22.7656 93.2865 22.5 93.5469 22.2188C93.8177 21.9375 94.099 21.6771 94.3906 21.4375C94.6823 21.1979 94.974 21 95.2656 20.8438C95.5573 20.6771 95.8385 20.5938 96.1094 20.5938C96.2656 20.5938 96.4167 20.6302 96.5625 20.7031C96.7188 20.776 96.7969 20.9167 96.7969 21.125C96.7969 21.1458 96.7917 21.1771 96.7812 21.2188C96.7708 21.25 96.7656 21.276 96.7656 21.2969C96.599 21.4427 96.3438 21.6667 96 21.9688C95.6667 22.2708 95.3125 22.6094 94.9375 22.9844C94.5625 23.3594 94.2031 23.75 93.8594 24.1562C93.5156 24.5625 93.2552 24.9479 93.0781 25.3125C93.0469 25.375 93.0365 25.4323 93.0469 25.4844C93.0573 25.526 93.0677 25.5781 93.0781 25.6406C93.1927 25.6823 93.375 25.7448 93.625 25.8281C93.875 25.9115 94.151 26.0104 94.4531 26.125C94.7552 26.2292 95.0781 26.3438 95.4219 26.4688C95.7656 26.5833 96.0885 26.6979 96.3906 26.8125C96.6927 26.9271 96.9635 27.0312 97.2031 27.125C97.4531 27.2083 97.6406 27.2708 97.7656 27.3125C97.9115 27.375 98.0312 27.4167 98.125 27.4375C98.2188 27.4583 98.2917 27.4896 98.3438 27.5312C98.3958 27.5625 98.4323 27.6094 98.4531 27.6719C98.474 27.7344 98.4844 27.8281 98.4844 27.9531C98.4844 28.2552 98.4115 28.4531 98.2656 28.5469C98.1198 28.6406 97.9115 28.6875 97.6406 28.6875C96.8385 28.6354 96.0521 28.4688 95.2812 28.1875C94.5104 27.8958 93.7292 27.5469 92.9375 27.1406C92.9062 27.3385 92.9167 27.5677 92.9688 27.8281C93.0312 28.0885 93.1042 28.349 93.1875 28.6094C93.2708 28.8698 93.349 29.125 93.4219 29.375C93.5052 29.625 93.5521 29.849 93.5625 30.0469C93.5833 30.2448 93.5625 30.401 93.5 30.5156C93.4375 30.6302 93.2969 30.6875 93.0781 30.6875ZM105.984 21.5938C105.984 21.4271 106.016 21.276 106.078 21.1406C106.151 20.9948 106.286 20.9219 106.484 20.9219C106.651 20.9219 106.812 21.0938 106.969 21.4375C107.135 21.7812 107.302 22.224 107.469 22.7656C107.646 23.2969 107.828 23.8854 108.016 24.5312C108.203 25.1667 108.401 25.7865 108.609 26.3906C108.818 26.9844 109.036 27.5208 109.266 28C109.495 28.4688 109.74 28.7969 110 28.9844C110.25 28.8802 110.448 28.6979 110.594 28.4375C110.75 28.1667 110.875 27.849 110.969 27.4844C111.062 27.1094 111.13 26.7083 111.172 26.2812C111.224 25.8438 111.271 25.4115 111.312 24.9844C111.365 24.5469 111.417 24.125 111.469 23.7188C111.521 23.3021 111.594 22.9375 111.688 22.625C111.792 22.3125 111.922 22.0625 112.078 21.875C112.234 21.6875 112.432 21.5938 112.672 21.5938C112.818 21.5938 112.948 21.6094 113.062 21.6406C113.177 21.6615 113.276 21.7656 113.359 21.9531C113.401 22.0885 113.469 22.2865 113.562 22.5469C113.656 22.8073 113.76 23.1094 113.875 23.4531C114 23.7969 114.135 24.1667 114.281 24.5625C114.438 24.9479 114.594 25.3281 114.75 25.7031C114.917 26.0781 115.078 26.4375 115.234 26.7812C115.391 27.1146 115.542 27.401 115.688 27.6406C115.708 27.6823 115.76 27.75 115.844 27.8438C115.938 27.9271 116 27.974 116.031 27.9844L116.703 27.3125C116.88 27.1354 117.016 26.875 117.109 26.5312C117.203 26.1771 117.271 25.7708 117.312 25.3125C117.365 24.8542 117.396 24.3646 117.406 23.8438C117.427 23.3125 117.443 22.7865 117.453 22.2656C117.464 21.7448 117.484 21.2396 117.516 20.75C117.547 20.2604 117.599 19.8333 117.672 19.4688C117.745 19.0938 117.849 18.7969 117.984 18.5781C118.12 18.3594 118.307 18.25 118.547 18.25C118.557 18.25 118.568 18.2552 118.578 18.2656C118.599 18.2656 118.62 18.2656 118.641 18.2656C118.672 18.276 118.693 18.2812 118.703 18.2812C118.714 18.2812 118.74 18.3021 118.781 18.3438C118.823 18.375 118.859 18.4062 118.891 18.4375C118.932 18.4688 118.964 18.5 118.984 18.5312C119.016 18.5625 119.036 18.5885 119.047 18.6094C119.047 18.6823 119.047 18.8125 119.047 19C119.057 19.1875 119.062 19.3906 119.062 19.6094C119.062 19.8281 119.062 20.0365 119.062 20.2344C119.073 20.4219 119.078 20.5521 119.078 20.625C119.078 20.8333 119.073 21.1198 119.062 21.4844C119.062 21.849 119.047 22.2656 119.016 22.7344C118.995 23.1927 118.958 23.6875 118.906 24.2188C118.865 24.7396 118.797 25.2604 118.703 25.7812C118.609 26.2917 118.49 26.7865 118.344 27.2656C118.208 27.7344 118.036 28.151 117.828 28.5156C117.63 28.8698 117.396 29.1562 117.125 29.375C116.865 29.5833 116.552 29.6875 116.188 29.6875C115.833 29.6875 115.531 29.5729 115.281 29.3438C115.042 29.1042 114.833 28.8125 114.656 28.4688C114.479 28.1146 114.328 27.7344 114.203 27.3281C114.078 26.9115 113.948 26.526 113.812 26.1719C113.688 25.8177 113.547 25.526 113.391 25.2969C113.245 25.0573 113.062 24.9375 112.844 24.9375C112.823 24.9375 112.792 24.9427 112.75 24.9531C112.719 24.9635 112.693 24.9688 112.672 24.9688C112.661 25.0104 112.63 25.1927 112.578 25.5156C112.526 25.8385 112.453 26.224 112.359 26.6719C112.266 27.1094 112.151 27.5833 112.016 28.0938C111.88 28.6042 111.724 29.0729 111.547 29.5C111.38 29.9271 111.193 30.2865 110.984 30.5781C110.786 30.8594 110.568 31 110.328 31C109.839 31 109.391 30.8177 108.984 30.4531C108.578 30.0781 108.214 29.599 107.891 29.0156C107.578 28.4219 107.302 27.7656 107.062 27.0469C106.823 26.3281 106.62 25.625 106.453 24.9375C106.297 24.2396 106.177 23.5938 106.094 23C106.021 22.3958 105.984 21.9271 105.984 21.5938ZM120.016 26.6562C120.016 26.0938 120.083 25.5312 120.219 24.9688C120.354 24.4062 120.568 23.901 120.859 23.4531C121.161 23.0052 121.547 22.6406 122.016 22.3594C122.495 22.0781 123.073 21.9375 123.75 21.9375C124.135 21.9375 124.474 22.0104 124.766 22.1562C125.057 22.2917 125.302 22.474 125.5 22.7031C125.698 22.9323 125.844 23.2031 125.938 23.5156C126.042 23.8177 126.094 24.1354 126.094 24.4688C126.094 25 125.969 25.5156 125.719 26.0156C125.479 26.5156 125.151 26.9583 124.734 27.3438C124.328 27.7188 123.859 28.0052 123.328 28.2031C122.797 28.3906 122.255 28.4323 121.703 28.3281C121.714 28.6302 121.812 28.875 122 29.0625C122.198 29.2396 122.432 29.375 122.703 29.4688C122.974 29.5625 123.255 29.625 123.547 29.6562C123.839 29.6771 124.099 29.6875 124.328 29.6875C124.568 29.6875 124.792 29.6667 125 29.625C125.208 29.5833 125.417 29.5365 125.625 29.4844C125.833 29.4323 126.042 29.3854 126.25 29.3438C126.469 29.3021 126.698 29.2812 126.938 29.2812C127.031 29.2812 127.125 29.2865 127.219 29.2969C127.312 29.3073 127.401 29.3333 127.484 29.375C127.568 29.4062 127.635 29.4635 127.688 29.5469C127.74 29.6198 127.766 29.7135 127.766 29.8281C127.766 30.026 127.693 30.1927 127.547 30.3281C127.401 30.4531 127.214 30.5625 126.984 30.6562C126.766 30.75 126.521 30.8229 126.25 30.875C125.979 30.9167 125.714 30.9531 125.453 30.9844C125.203 31.0052 124.969 31.0156 124.75 31.0156C124.542 31.026 124.385 31.0312 124.281 31.0312C123.615 31.0312 123.016 30.9271 122.484 30.7188C121.953 30.5 121.505 30.2031 121.141 29.8281C120.776 29.4427 120.495 28.9844 120.297 28.4531C120.109 27.9115 120.016 27.3125 120.016 26.6562ZM121.672 25.6406C121.672 26.0052 121.719 26.2708 121.812 26.4375C121.917 26.6042 122.161 26.6875 122.547 26.6875C122.818 26.6875 123.083 26.6406 123.344 26.5469C123.604 26.4427 123.839 26.3021 124.047 26.125C124.266 25.9479 124.438 25.7396 124.562 25.5C124.688 25.2604 124.75 25 124.75 24.7188C124.75 24.5625 124.734 24.401 124.703 24.2344C124.682 24.0677 124.63 23.9167 124.547 23.7812C124.464 23.6354 124.354 23.5208 124.219 23.4375C124.094 23.3438 123.927 23.2969 123.719 23.2969C123.406 23.2969 123.12 23.3698 122.859 23.5156C122.609 23.651 122.396 23.8333 122.219 24.0625C122.042 24.2812 121.906 24.5312 121.812 24.8125C121.719 25.0833 121.672 25.3594 121.672 25.6406ZM131.094 30.3281C130.771 29.3906 130.464 28.5156 130.172 27.7031C129.891 26.8802 129.641 26.0781 129.422 25.2969C129.214 24.5052 129.047 23.7031 128.922 22.8906C128.797 22.0781 128.734 21.2083 128.734 20.2812C128.734 20.2083 128.734 20.0781 128.734 19.8906C128.745 19.6927 128.75 19.4896 128.75 19.2812C128.75 19.0729 128.75 18.875 128.75 18.6875C128.76 18.4896 128.766 18.3542 128.766 18.2812C128.859 18.0729 129.021 17.8802 129.25 17.7031C129.49 17.526 129.729 17.4375 129.969 17.4375C129.969 18.2083 129.979 19.0312 130 19.9062C130.021 20.7708 130.083 21.6354 130.188 22.5C130.302 23.3646 130.479 24.2135 130.719 25.0469C130.969 25.8698 131.318 26.625 131.766 27.3125C131.776 27.0625 131.786 26.7865 131.797 26.4844C131.807 26.1823 131.833 25.8802 131.875 25.5781C131.927 25.276 132.005 24.9844 132.109 24.7031C132.214 24.4219 132.365 24.1719 132.562 23.9531C132.771 23.7344 133.036 23.5625 133.359 23.4375C133.693 23.3125 134.109 23.2552 134.609 23.2656C135.057 23.2656 135.458 23.349 135.812 23.5156C136.177 23.6823 136.479 23.9115 136.719 24.2031C136.969 24.4844 137.156 24.8177 137.281 25.2031C137.417 25.5781 137.484 25.9792 137.484 26.4062C137.484 26.9792 137.344 27.5417 137.062 28.0938C136.781 28.6458 136.406 29.1406 135.938 29.5781C135.479 30.0156 134.964 30.3698 134.391 30.6406C133.818 30.901 133.234 31.0312 132.641 31.0312C132.339 31.0312 132.047 30.9792 131.766 30.875C131.484 30.7604 131.26 30.5781 131.094 30.3281ZM134.797 24.625C134.589 24.7396 134.37 24.875 134.141 25.0312C133.911 25.1875 133.698 25.4323 133.5 25.7656C133.312 26.0885 133.151 26.5312 133.016 27.0938C132.88 27.6562 132.797 28.401 132.766 29.3281C132.786 29.3281 132.839 29.3333 132.922 29.3438C133.016 29.3542 133.078 29.3594 133.109 29.3594C133.391 29.3594 133.708 29.2708 134.062 29.0938C134.427 28.9167 134.776 28.6979 135.109 28.4375C135.453 28.1771 135.75 27.8906 136 27.5781C136.25 27.2552 136.401 26.9479 136.453 26.6562C136.484 26.4792 136.448 26.276 136.344 26.0469C136.24 25.8177 136.099 25.599 135.922 25.3906C135.755 25.1719 135.568 24.9896 135.359 24.8438C135.161 24.6979 134.974 24.625 134.797 24.625Z" fill="#673AB7"/>
</svg>
