<svg width="84" height="84" viewBox="0 0 84 84" fill="none" xmlns="http://www.w3.org/2000/svg">
<rect width="84" height="84" rx="42" fill="#F1E9FD"/>
<mask id="mask0_3391_13131" style="mask-type:alpha" maskUnits="userSpaceOnUse" x="16" y="16" width="52" height="52">
<rect x="16" y="16" width="52" height="52" fill="#D9D9D9"/>
</mask>
<g mask="url(#mask0_3391_13131)">
<path d="M20.333 63.6673V59.334H24.6663V39.834H20.333V35.5007L41.9997 20.334L63.6663 35.5007V39.834H59.333V59.334H63.6663V63.6673H20.333ZM54.9997 59.334V34.7423L41.9997 25.6423L28.9997 34.7423V59.334H54.9997Z" fill="#673AB7"/>
</g>
<mask id="mask1_3391_13131" style="mask-type:alpha" maskUnits="userSpaceOnUse" x="26" y="31" width="32" height="32">
<rect x="26" y="31" width="32" height="32" fill="#D9D9D9"/>
</mask>
<g mask="url(#mask1_3391_13131)">
<path d="M41.9958 46.9948C40.5291 46.9948 39.2735 46.4726 38.2291 45.4281C37.1847 44.3837 36.6624 43.1281 36.6624 41.6615C36.6624 40.1948 37.1847 38.9392 38.2291 37.8948C39.2735 36.8503 40.5291 36.3281 41.9958 36.3281C43.4624 36.3281 44.718 36.8503 45.7624 37.8948C46.8069 38.9392 47.3291 40.1948 47.3291 41.6615C47.3291 43.1281 46.8069 44.3837 45.7624 45.4281C44.718 46.4726 43.4624 46.9948 41.9958 46.9948ZM31.3291 57.6615V53.9281C31.3291 53.1726 31.5235 52.4781 31.9124 51.8448C32.3013 51.2115 32.818 50.7281 33.4624 50.3948C34.8402 49.7059 36.2402 49.1892 37.6624 48.8448C39.0847 48.5003 40.5291 48.3281 41.9958 48.3281C43.4624 48.3281 44.9069 48.5003 46.3291 48.8448C47.7513 49.1892 49.1513 49.7059 50.5291 50.3948C51.1735 50.7281 51.6902 51.2115 52.0791 51.8448C52.468 52.4781 52.6624 53.1726 52.6624 53.9281V57.6615H31.3291ZM33.9958 54.9948H49.9958V53.9281C49.9958 53.6837 49.9347 53.4615 49.8124 53.2615C49.6902 53.0615 49.5291 52.9059 49.3291 52.7948C48.1291 52.1948 46.918 51.7448 45.6958 51.4448C44.4735 51.1448 43.2402 50.9948 41.9958 50.9948C40.7513 50.9948 39.518 51.1448 38.2958 51.4448C37.0735 51.7448 35.8624 52.1948 34.6624 52.7948C34.4624 52.9059 34.3013 53.0615 34.1791 53.2615C34.0569 53.4615 33.9958 53.6837 33.9958 53.9281V54.9948ZM41.9958 44.3281C42.7291 44.3281 43.3569 44.067 43.8791 43.5448C44.4013 43.0226 44.6624 42.3948 44.6624 41.6615C44.6624 40.9281 44.4013 40.3003 43.8791 39.7781C43.3569 39.2559 42.7291 38.9948 41.9958 38.9948C41.2624 38.9948 40.6347 39.2559 40.1124 39.7781C39.5902 40.3003 39.3291 40.9281 39.3291 41.6615C39.3291 42.3948 39.5902 43.0226 40.1124 43.5448C40.6347 44.067 41.2624 44.3281 41.9958 44.3281Z" fill="#673AB7"/>
</g>
</svg>
