<svg width="84" height="84" viewBox="0 0 84 84" fill="none" xmlns="http://www.w3.org/2000/svg">
<rect width="84" height="84" rx="42" fill="#F1E9FD"/>
<mask id="mask0_3391_13044" style="mask-type:alpha" maskUnits="userSpaceOnUse" x="16" y="16" width="52" height="52">
<rect x="16" y="16" width="52" height="52" fill="#D9D9D9"/>
</mask>
<g mask="url(#mask0_3391_13044)">
<path d="M50.6663 63.6693V58.7943C48.6441 58.1443 46.9469 56.9887 45.5747 55.3276C44.2025 53.6665 43.408 51.7526 43.1913 49.5859H47.5247C47.8136 51.1387 48.5448 52.4297 49.7184 53.4589C50.892 54.488 52.2913 55.0026 53.9163 55.0026H60.4163C61.3191 55.0026 62.0865 55.3186 62.7184 55.9505C63.3504 56.5825 63.6663 57.3498 63.6663 58.2526V63.6693H50.6663ZM57.1663 52.8359C55.9747 52.8359 54.9545 52.4116 54.1059 51.563C53.2573 50.7144 52.833 49.6943 52.833 48.5026C52.833 47.3109 53.2573 46.2908 54.1059 45.4422C54.9545 44.5936 55.9747 44.1693 57.1663 44.1693C58.358 44.1693 59.3781 44.5936 60.2268 45.4422C61.0754 46.2908 61.4997 47.3109 61.4997 48.5026C61.4997 49.6943 61.0754 50.7144 60.2268 51.563C59.3781 52.4116 58.358 52.8359 57.1663 52.8359ZM35.4997 46.3359C35.4997 40.9193 37.3955 36.3151 41.1872 32.5234C44.9788 28.7318 49.583 26.8359 54.9997 26.8359V31.1693C50.7747 31.1693 47.1906 32.6408 44.2476 35.5839C41.3045 38.5269 39.833 42.1109 39.833 46.3359H35.4997ZM44.1663 46.3359C44.1663 43.3387 45.2226 40.7839 47.3351 38.6714C49.4476 36.5589 52.0024 35.5026 54.9997 35.5026V39.8359C53.1941 39.8359 51.6594 40.4679 50.3955 41.7318C49.1316 42.9957 48.4997 44.5304 48.4997 46.3359H44.1663ZM20.333 39.8359V34.4193C20.333 33.5165 20.649 32.7491 21.2809 32.1172C21.9129 31.4852 22.6802 31.1693 23.583 31.1693H30.083C31.708 31.1693 33.1073 30.6547 34.2809 29.6255C35.4545 28.5964 36.1858 27.3054 36.4747 25.7526H40.808C40.5913 27.9193 39.7969 29.8332 38.4247 31.4943C37.0525 33.1554 35.3552 34.3109 33.333 34.9609V39.8359H20.333ZM26.833 29.0026C25.6413 29.0026 24.6212 28.5783 23.7726 27.7297C22.924 26.8811 22.4997 25.8609 22.4997 24.6693C22.4997 23.4776 22.924 22.4575 23.7726 21.6089C24.6212 20.7602 25.6413 20.3359 26.833 20.3359C28.0247 20.3359 29.0448 20.7602 29.8934 21.6089C30.742 22.4575 31.1663 23.4776 31.1663 24.6693C31.1663 25.8609 30.742 26.8811 29.8934 27.7297C29.0448 28.5783 28.0247 29.0026 26.833 29.0026Z" fill="#673AB7"/>
</g>
</svg>
