<svg width="84" height="84" viewBox="0 0 84 84" fill="none" xmlns="http://www.w3.org/2000/svg">
<rect width="84" height="84" rx="42" fill="#F1E9FD"/>
<mask id="mask0_3391_13012" style="mask-type:alpha" maskUnits="userSpaceOnUse" x="16" y="16" width="52" height="52">
<rect x="16" y="16" width="52" height="52" fill="#D9D9D9"/>
</mask>
<g mask="url(#mask0_3391_13012)">
<path d="M34.9583 64.5885C33.2972 64.5885 31.8076 64.1552 30.4896 63.2885C29.1715 62.4219 28.1514 61.2302 27.4292 59.7135C26.8514 60.4719 26.1201 61.0587 25.2354 61.474C24.3507 61.8892 23.4389 62.0969 22.5 62.0969C20.6583 62.0969 19.1146 61.4649 17.8688 60.201C16.6229 58.9372 16 57.4024 16 55.5969C16 54.0441 16.5056 52.6448 17.5167 51.399C18.5278 50.1531 19.8097 49.4399 21.3625 49.2594C20.8569 48.5372 20.4688 47.7698 20.1979 46.9573C19.9271 46.1448 19.7917 45.2872 19.7917 44.3844C19.7917 42.9399 20.1618 41.5858 20.9021 40.3219C21.6424 39.058 22.6806 38.0288 24.0167 37.2344C24.1972 37.8844 24.441 38.5795 24.7479 39.3198C25.0549 40.0601 25.4069 40.701 25.8042 41.2427C25.2986 41.6399 24.9014 42.1184 24.6125 42.6781C24.3236 43.2378 24.1792 43.8247 24.1792 44.4385C24.1792 46.4608 25.0097 47.7066 26.6708 48.176C28.3319 48.6455 29.9028 49.0247 31.3833 49.3135L32.4125 51.0469C32.0153 52.2024 31.6722 53.1865 31.3833 53.999C31.0944 54.8115 30.95 55.5427 30.95 56.1927C30.95 57.276 31.3382 58.224 32.1146 59.0365C32.891 59.849 33.8389 60.2552 34.9583 60.2552C36.3306 60.2552 37.4681 59.6413 38.3708 58.4135C39.2736 57.1858 40.0139 55.7413 40.5917 54.0802C41.1694 52.4191 41.6118 50.7399 41.9188 49.0427C42.2257 47.3455 42.4694 46.0455 42.65 45.1427L46.875 46.2802C46.55 47.9052 46.1528 49.7649 45.6833 51.8594C45.2139 53.9538 44.5549 55.949 43.7063 57.8448C42.8576 59.7406 41.7382 61.3385 40.3479 62.6385C38.9576 63.9385 37.1611 64.5885 34.9583 64.5885ZM22.5 57.7635C23.1139 57.7635 23.6285 57.5559 24.0438 57.1406C24.459 56.7253 24.6667 56.2108 24.6667 55.5969C24.6667 54.983 24.459 54.4684 24.0438 54.0531C23.6285 53.6379 23.1139 53.4302 22.5 53.4302C21.8861 53.4302 21.3715 53.6379 20.9563 54.0531C20.541 54.4684 20.3333 54.983 20.3333 55.5969C20.3333 56.2108 20.541 56.7253 20.9563 57.1406C21.3715 57.5559 21.8861 57.7635 22.5 57.7635ZM37.8833 49.2052C36.2222 47.7247 34.7146 46.3434 33.3604 45.0615C32.0063 43.7795 30.8417 42.5337 29.8667 41.324C28.8917 40.1142 28.1424 38.9045 27.6188 37.6948C27.0951 36.4851 26.8333 35.2302 26.8333 33.9302C26.8333 31.583 27.6368 29.6059 29.2438 27.999C30.8507 26.392 32.8278 25.5885 35.175 25.5885C35.3194 25.5885 35.4458 25.5976 35.5542 25.6156C35.6625 25.6337 35.7889 25.6427 35.9333 25.6427C35.7889 25.2816 35.6806 24.9205 35.6083 24.5594C35.5361 24.1983 35.5 23.8191 35.5 23.4219C35.5 21.6163 36.1319 20.0816 37.3958 18.8177C38.6597 17.5538 40.1944 16.9219 42 16.9219C43.8056 16.9219 45.3403 17.5538 46.6042 18.8177C47.8681 20.0816 48.5 21.6163 48.5 23.4219C48.5 23.8191 48.4639 24.1892 48.3917 24.5323C48.3194 24.8753 48.2111 25.2274 48.0667 25.5885H48.825C50.9917 25.5885 52.8333 26.2837 54.35 27.674C55.8667 29.0642 56.7694 30.7885 57.0583 32.8469C56.4083 32.7385 55.6771 32.6844 54.8646 32.6844C54.0521 32.6844 53.3028 32.7205 52.6167 32.7927C52.3639 31.9622 51.9035 31.276 51.2354 30.7344C50.5674 30.1927 49.7639 29.9219 48.825 29.9219C47.5611 29.9219 46.5771 30.292 45.8729 31.0323C45.1688 31.7726 44.2028 32.8469 42.975 34.2552H40.9708C39.7069 32.7747 38.7229 31.6823 38.0188 30.9781C37.3146 30.274 36.3667 29.9219 35.175 29.9219C34.0194 29.9219 33.0625 30.301 32.3042 31.0594C31.5458 31.8177 31.1667 32.7747 31.1667 33.9302C31.1667 34.7608 31.4014 35.6184 31.8708 36.5031C32.3403 37.3878 32.9993 38.3267 33.8479 39.3198C34.6965 40.3128 35.7257 41.3691 36.9354 42.4885C38.1451 43.608 39.4903 44.8177 40.9708 46.1177L37.8833 49.2052ZM42 25.5885C42.6139 25.5885 43.1285 25.3809 43.5438 24.9656C43.959 24.5503 44.1667 24.0358 44.1667 23.4219C44.1667 22.808 43.959 22.2934 43.5438 21.8781C43.1285 21.4628 42.6139 21.2552 42 21.2552C41.3861 21.2552 40.8715 21.4628 40.4563 21.8781C40.041 22.2934 39.8333 22.808 39.8333 23.4219C39.8333 24.0358 40.041 24.5503 40.4563 24.9656C40.8715 25.3809 41.3861 25.5885 42 25.5885ZM48.9875 64.5885C48.1931 64.5885 47.4076 64.4802 46.6313 64.2635C45.8549 64.0469 45.1056 63.7038 44.3833 63.2344C44.7806 62.7288 45.1778 62.133 45.575 61.4469C45.9722 60.7608 46.3333 60.1288 46.6583 59.551C47.0556 59.8038 47.4528 59.9844 47.85 60.0927C48.2472 60.201 48.6444 60.2552 49.0417 60.2552C50.1972 60.2552 51.1632 59.849 51.9396 59.0365C52.716 58.224 53.1042 57.258 53.1042 56.1385C53.1042 55.4524 52.9597 54.7122 52.6708 53.9177C52.3819 53.1233 52.0389 52.1483 51.6417 50.9927L52.6708 49.2594C54.1875 48.9705 55.7674 48.5913 57.4104 48.1219C59.0535 47.6524 59.875 46.4066 59.875 44.3844C59.875 42.9399 59.3424 41.8927 58.2771 41.2427C57.2118 40.5927 56.0472 40.2677 54.7833 40.2677C53.2667 40.2677 51.4972 40.5566 49.475 41.1344C47.4528 41.7122 45.0875 42.4524 42.3792 43.3552L41.2417 39.1302C44.0583 38.2274 46.5681 37.4691 48.7708 36.8552C50.9736 36.2413 52.9958 35.9344 54.8375 35.9344C57.3292 35.9344 59.5139 36.6747 61.3917 38.1552C63.2694 39.6358 64.2083 41.7122 64.2083 44.3844C64.2083 45.2872 64.0729 46.1448 63.8021 46.9573C63.5312 47.7698 63.1431 48.5372 62.6375 49.2594C64.1903 49.4399 65.4722 50.1531 66.4833 51.399C67.4944 52.6448 68 54.0441 68 55.5969C68 57.4024 67.3771 58.9372 66.1313 60.201C64.8854 61.4649 63.3417 62.0969 61.5 62.0969C60.5611 62.0969 59.6493 61.8892 58.7646 61.474C57.8799 61.0587 57.1486 60.4719 56.5708 59.7135C55.8486 61.2302 54.8285 62.4219 53.5104 63.2885C52.1924 64.1552 50.6847 64.5885 48.9875 64.5885ZM61.5542 57.7635C62.1681 57.7635 62.6736 57.5559 63.0708 57.1406C63.4681 56.7253 63.6667 56.2108 63.6667 55.5969C63.6667 54.983 63.459 54.4594 63.0438 54.026C62.6285 53.5927 62.1139 53.376 61.5 53.376C60.8861 53.376 60.3715 53.5837 59.9563 53.999C59.541 54.4142 59.3333 54.9288 59.3333 55.5427C59.3333 56.1566 59.55 56.6802 59.9833 57.1135C60.4167 57.5469 60.9403 57.7635 61.5542 57.7635Z" fill="#673AB7"/>
</g>
</svg>
